PathFileType	4	(X/Y/Z)	/Users/itak/Documents/Research/Walk-IL/dataset/trc/00094_00006.trc
DataRate	CameraRate	NumFrames	NumMarkers	Units	OrigDataRate	OrigDataStartFrame	OrigNumFrames
100.000000	100.000000	4	53	mm	100.000000	131	525
Frame#	Time	RPSI			LPSI			L3			STRN			T10			C7			CLAV			RBAK			LBAK			LSHO			LUPA			LAEL			LAOL			LWTS			LWPS			LFRA			LIFD			LHPS			LHTS			RSHO			RUPA			RAEL			RAOL			RWTS			RWPS			RFRA			RIFD			RHTS			RHPS			RBHD			LFHD			RFHD			LBHD			LHIP			RHIP			RASI			LASI			LKNE			LTHI			LANK			LTIP			LTOE			LMT1			LMT5			LHEE			RKNE			RTHI			RANK			RTIP			RTOE			RMT1			RMT5			RHEE			
		X1	Y1	Z1	X2	Y2	Z2	X3	Y3	Z3	X4	Y4	Z4	X5	Y5	Z5	X6	Y6	Z6	X7	Y7	Z7	X8	Y8	Z8	X9	Y9	Z9	X10	Y10	Z10	X11	Y11	Z11	X12	Y12	Z12	X13	Y13	Z13	X14	Y14	Z14	X15	Y15	Z15	X16	Y16	Z16	X17	Y17	Z17	X18	Y18	Z18	X19	Y19	Z19	X20	Y20	Z20	X21	Y21	Z21	X22	Y22	Z22	X23	Y23	Z23	X24	Y24	Z24	X25	Y25	Z25	X26	Y26	Z26	X27	Y27	Z27	X28	Y28	Z28	X29	Y29	Z29	X30	Y30	Z30	X31	Y31	Z31	X32	Y32	Z32	X33	Y33	Z33	X34	Y34	Z34	X35	Y35	Z35	X36	Y36	Z36	X37	Y37	Z37	X38	Y38	Z38	X39	Y39	Z39	X40	Y40	Z40	X41	Y41	Z41	X42	Y42	Z42	X43	Y43	Z43	X44	Y44	Z44	X45	Y45	Z45	X46	Y46	Z46	X47	Y47	Z47	X48	Y48	Z48	X49	Y49	Z49	X50	Y50	Z50	X51	Y51	Z51	X52	Y52	Z52	X53	Y53	Z53	

132	1.31	-1295.272705078125	1048.088500976562	96.47276306152344	-1314.4716796875	1041.281494140625	-78.99418640136719	-1299.195678710938	1094.074829101562	3.08889102935791	-1046.12451171875	1281.67724609375	-4.522450923919678	-1316.601806640625	1227.50537109375	-0.3952136635780334	-1247.1318359375	1492.059692382812	-7.059071063995361	-1071.043701171875	1397.34716796875	-6.734310626983643	-1314.550659179688	1356.781860351562	71.94680786132812	-1270.412719726562	1454.465698242188	-108.9502029418945	-1166.340209960938	1453.53125	-182.0034332275391	-1188.127197265625	1325.759033203125	-257.5344848632812	-1174.033203125	1110.231811523438	-275.8020629882812	-1234.69189453125	1097.307739257812	-188.9835510253906	-1078.646728515625	873.619873046875	-211.1180572509766	-1140.208618164062	859.7448120117188	-267.3062133789062	-1153.673095703125	1000.978515625	-281.7225646972656	-1061.171264648438	691.44140625	-183.8152160644531	-1103.606323242188	779.6744384765625	-261.4957580566406	-1053.343994140625	792.923095703125	-213.7711334228516	-1182.657836914062	1453.792114257812	169.6272277832031	-1192.822875976562	1383.344482421875	235.2686920166016	-1222.898559570312	1115.756225585938	258.4693908691406	-1212.99072265625	1095.505126953125	162.934814453125	-1087.554443359375	862.088623046875	219.3868103027344	-1156.735961914062	850.9258422851562	271.6181335449219	-1210.677490234375	1037.438842773438	264.2514953613281	-1102.4609375	673.0133666992188	195.7899932861328	-1074.457641601562	756.751220703125	215.798095703125	-1128.2060546875	759.0838623046875	271.3565063476562	-1221.955200195312	1644.536499023438	64.47420501708984	-1040.206665039062	1709.325439453125	-46.08827209472656	-1058.20263671875	1694.857666015625	77.54232788085938	-1212.02392578125	1667.060180664062	-71.66339874267578	-1218.234985351562	969.7386474609375	-172.01904296875	-1230.88525390625	974.0564575195312	171.8321990966797	-1106.712890625	976.582275390625	143.8564605712891	-1103.013061523438	972.51806640625	-125.7749481201172	-1155.0205078125	504.2210998535156	-129.7252197265625	-1187.047607421875	643.9979248046875	-163.8069305419922	-1279.6416015625	52.08001327514648	-143.4105834960938	-1225.701782226562	267.7096252441406	-149.3498229980469	-1074.376831054688	47.63924026489258	-152.458740234375	-1119.23388671875	47.54203796386719	-95.63722229003906	-1180.571655273438	41.30619049072266	-190.0545043945312	-1325.345336914062	49.98185729980469	-63.724365234375	-1192.662353515625	518.1386108398438	161.8491363525391	-1160.852783203125	789.0200805664062	181.4192199707031	-1274.3447265625	45.08337020874023	173.1898956298828	-1217.415771484375	402.015625	173.9394073486328	-1058.483276367188	44.13058090209961	131.4740753173828	-1120.492797851562	48.33192443847656	92.77444458007812	-1149.15478515625	49.21679306030273	187.8726959228516	-1322.8046875	46.19141387939453	117.277702331543	
133	1.32	-1294.685302734375	1048.058349609375	95.49436187744141	-1313.996215820312	1041.125	-79.9649658203125	-1298.701538085938	1094.034423828125	2.149263381958008	-1045.46044921875	1281.453979492188	-5.689830780029297	-1315.89013671875	1227.43798828125	-1.199750542640686	-1246.411254882812	1492.034790039062	-7.947142124176025	-1070.369140625	1397.166015625	-7.860965251922607	-1313.7158203125	1356.699340820312	71.13806915283203	-1269.823486328125	1454.389892578125	-109.7875061035156	-1165.828369140625	1453.4150390625	-182.9724884033203	-1187.808715820312	1325.6513671875	-258.4462585449219	-1173.927368164062	1110.073486328125	-276.6636047363281	-1234.36572265625	1097.224731445312	-189.7113189697266	-1078.323120117188	873.5979614257812	-211.7484741210938	-1140.091186523438	859.6080322265625	-267.8974609375	-1153.516845703125	1000.804992675781	-282.4695434570312	-1060.773315429688	691.5494995117188	-184.2244415283203	-1103.365600585938	779.5545654296875	-261.9810485839844	-1053.026245117188	792.8937377929688	-214.3647613525391	-1181.615966796875	1453.607299804688	168.6400604248047	-1191.815063476562	1383.174194335938	234.2764587402344	-1222.142211914062	1115.709838867188	257.7355346679688	-1212.097045898438	1095.323486328125	162.1808776855469	-1087.123168945312	861.8790893554688	218.8902282714844	-1156.332275390625	850.8229370117188	271.1632995605469	-1209.973022460938	1037.373901367188	263.6370544433594	-1102.315307617188	672.7592163085938	195.6907196044922	-1074.1904296875	756.419189453125	215.5343017578125	-1127.890625	758.9089965820312	271.0088806152344	-1221.155639648438	1644.342651367188	63.45259857177734	-1039.200561523438	1709.210327148438	-46.7617073059082	-1057.34912109375	1694.65869140625	76.84302520751953	-1210.9921875	1666.964721679688	-72.63523101806641	-1217.811767578125	969.5662231445312	-173.0793762207031	-1230.351440429688	973.9821166992188	170.7991638183594	-1106.205810546875	976.5693359375	142.8286437988281	-1102.592651367188	972.3768310546875	-126.7783279418945	-1153.7470703125	504.0875549316406	-130.156494140625	-1185.870361328125	643.72119140625	-164.4012603759766	-1279.659057617188	52.06891250610352	-143.4323120117188	-1225.01416015625	267.4664001464844	-149.5491485595703	-1074.401977539062	47.68016052246094	-152.4792785644531	-1119.258422851562	47.58655548095703	-95.66358947753906	-1180.587524414062	41.30420684814453	-190.0603942871094	-1325.360717773438	50.00309371948242	-63.74120712280273	-1192.1298828125	518.1920776367188	161.3991851806641	-1160.475219726562	789.1546020507812	180.6146087646484	-1274.33544921875	45.04854583740234	173.2460174560547	-1217.111450195312	402.0257263183594	173.5329132080078	-1058.508422851562	44.17542266845703	131.5530853271484	-1120.547729492188	48.37926483154297	92.79900360107422	-1149.14501953125	49.24100875854492	187.8828735351562	-1322.815673828125	46.16575241088867	117.2965621948242	
134	1.33	-1294.060180664062	1048.02685546875	94.46006774902344	-1313.477172851562	1040.962768554688	-80.97362518310547	-1298.192138671875	1093.986083984375	1.14306378364563	-1044.76318359375	1281.226684570312	-6.912412166595459	-1315.137939453125	1227.370483398438	-2.071600914001465	-1245.626708984375	1491.975463867188	-8.878464698791504	-1069.6591796875	1396.980102539062	-9.035564422607422	-1312.83203125	1356.611083984375	70.28134155273438	-1269.180419921875	1454.31982421875	-110.6833038330078	-1165.250732421875	1453.302734375	-183.9900054931641	-1187.45068359375	1325.544189453125	-259.4210205078125	-1173.7626953125	1109.92041015625	-277.5655517578125	-1233.995971679688	1097.147705078125	-190.4857330322266	-1078.01611328125	873.5580444335938	-212.4289245605469	-1139.972045898438	859.47021484375	-268.5464782714844	-1153.336303710938	1000.629455566406	-283.2663269042969	-1060.493286132812	691.5619506835938	-184.7220764160156	-1103.158081054688	779.4209594726562	-262.535400390625	-1052.746337890625	792.8206787109375	-215.02099609375	-1180.494384765625	1453.381469726562	167.5838470458984	-1190.780517578125	1382.983276367188	233.2181701660156	-1221.371704101562	1115.660034179688	256.9562072753906	-1211.193481445312	1095.139282226562	161.3598327636719	-1086.665405273438	861.6382446289062	218.3555297851562	-1155.944458007812	850.7079467773438	270.6341857910156	-1209.272583007812	1037.296142578125	262.970703125	-1102.08251953125	672.5198974609375	195.5356140136719	-1073.8125	756.1008911132812	215.2381286621094	-1127.527954101562	758.7354125976562	270.6530456542969	-1220.289184570312	1644.138549804688	62.39188003540039	-1038.134399414062	1709.083740234375	-47.46865081787109	-1056.460083007812	1694.45458984375	76.10984802246094	-1209.877319335938	1666.855590820312	-73.63555908203125	-1217.345336914062	969.3829956054688	-174.16015625	-1229.760986328125	973.91357421875	169.7220306396484	-1105.674194335938	976.555419921875	141.7362060546875	-1102.111450195312	972.222900390625	-127.8525619506836	-1152.5341796875	503.9486694335938	-130.6331329345703	-1184.661254882812	643.4349975585938	-165.0103912353516	-1279.6767578125	52.0538330078125	-143.4564666748047	-1224.368286132812	267.2303161621094	-149.7745361328125	-1074.423950195312	47.71408081054688	-152.503662109375	-1119.282592773438	47.6286506652832	-95.69199371337891	-1180.600708007812	41.2924690246582	-190.0733032226562	-1325.382202148438	50.02583312988281	-63.76551055908203	-1191.498168945312	518.2479248046875	160.9139709472656	-1160.0634765625	789.270263671875	179.7718963623047	-1274.327026367188	45.02254867553711	173.2937927246094	-1216.747314453125	402.0559692382812	173.0842895507812	-1058.526123046875	44.21438598632812	131.6235046386719	-1120.593505859375	48.41682052612305	92.81945037841797	-1149.128173828125	49.26766586303711	187.8841857910156	-1322.825439453125	46.14436340332031	117.3075103759766	
135	1.34	-1293.3984375	1047.98974609375	93.37076568603516	-1312.918334960938	1040.790649414062	-82.02487182617188	-1297.661254882812	1093.931274414062	0.07242211699485779	-1044.03076171875	1280.998046875	-8.187503814697266	-1314.354370117188	1227.30810546875	-3.015150308609009	-1244.767700195312	1491.870971679688	-9.855144500732422	-1068.907104492188	1396.791625976562	-10.25640106201172	-1311.901611328125	1356.52099609375	69.37681579589844	-1268.478393554688	1454.258178710938	-111.6378555297852	-1164.6103515625	1453.195922851562	-185.0599822998047	-1187.046997070312	1325.4375	-260.4605407714844	-1173.531372070312	1109.773193359375	-278.5082397460938	-1233.590087890625	1097.080444335938	-191.3140258789062	-1077.728881835938	873.4987182617188	-213.1692810058594	-1139.840454101562	859.3305053710938	-269.2532653808594	-1153.134033203125	1000.453308105469	-284.1166381835938	-1060.314086914062	691.48974609375	-185.3023834228516	-1102.979125976562	779.2735595703125	-263.1602172851562	-1052.501098632812	792.7073974609375	-215.7359466552734	-1179.283813476562	1453.110717773438	166.4511260986328	-1189.714477539062	1382.774658203125	232.0937347412109	-1220.598388671875	1115.6123046875	256.1278991699219	-1210.286254882812	1094.9541015625	160.4696350097656	-1086.178955078125	861.38134765625	217.7891693115234	-1155.565551757812	850.58642578125	270.0360107421875	-1208.592529296875	1037.211669921875	262.2461853027344	-1101.741577148438	672.2979736328125	195.3200378417969	-1073.314453125	755.8208618164062	214.9036254882812	-1127.101318359375	758.5726928710938	270.2827453613281	-1219.35986328125	1643.928100585938	61.29047012329102	-1037.014038085938	1708.949096679688	-48.21054840087891	-1055.538452148438	1694.24462890625	75.33762359619141	-1208.685668945312	1666.739868164062	-74.66846466064453	-1216.82470703125	969.190673828125	-175.2685089111328	-1229.112548828125	973.8501586914062	168.5995635986328	-1105.106689453125	976.5418090820312	140.5801239013672	-1101.584838867188	972.0575561523438	-128.9886322021484	-1151.380737304688	503.7999572753906	-131.1493225097656	-1183.442016601562	643.14697265625	-165.63916015625	-1279.69482421875	52.03496551513672	-143.482666015625	-1223.755981445312	266.9958801269531	-150.0196075439453	-1074.443359375	47.74185943603516	-152.529296875	-1119.306274414062	47.66757583618164	-95.71964263916016	-1180.611938476562	41.27424240112305	-190.0901947021484	-1325.412353515625	50.05124282836914	-63.79827117919922	-1190.766479492188	518.2957153320312	160.3827209472656	-1159.585571289062	789.3511962890625	178.8865356445312	-1274.326049804688	45.00936508178711	173.3279724121094	-1216.305786132812	402.1066589355469	172.5907897949219	-1058.5380859375	44.24817657470703	131.6841735839844	-1120.631225585938	48.44487380981445	92.83464813232422	-1149.109375	49.29441070556641	187.8809814453125	-1322.833129882812	46.12577056884766	117.3111801147461	
